<svg xmlns="http://www.w3.org/2000/svg" viewBox="0 0 50 50">
  <path fill="#635757"
        d="M48,35.5c0-.83-9.85-1.5-22-1.5H24.42a36.53,36.53,0,0,0-8.92-1C8,33,2,34.79,2,37c0,2.44,5.18,3.2,6.8,3.47a44.82,44.82,0,0,0,14.11-.07,12.3,12.3,0,0,0,4.89-1.69c1.38-.9,2.27-2.28,4-2.62a18.2,18.2,0,0,1,5.89.13C38.68,36.35,48,37,48,35.5Z"/>
  <path fill="#a59347"
        d="M4,33.46s-.41-1.24,2.89-2.07,9.9-.82,13.2-1.24,8.67-.41,12.38-1.65S49,30.15,49,31v3.71A42.28,42.28,0,0,0,38.68,31.8,17.57,17.57,0,0,0,30,33c-.83.42-7.84.83-12.79.83S6.5,35.11,4,37.17Z"/>
  <path fill="#9b893d"
        d="M29.27,29.53a.51.51,0,0,1,.3.47v3l5.24-.36V28.85s.2-.31.41-.29a3.15,3.15,0,0,0-1.83-.11A32.61,32.61,0,0,0,29.27,29.53Z"/>
  <path fill="#9b893d" d="M46.18,30.24s.37.25.37.52v3.95l2.09-.08L48.72,31Z"/>
  <path fill="#9b893d"
        d="M18.36,30.49s-.53.09-.53.45v3a33.93,33.93,0,0,0-7.47.71,47.8,47.8,0,0,0-5.95,1.87L4.23,33s.4-1.24,3.78-1.73S18.36,30.49,18.36,30.49Z"/>
  <path fill="#e8cf67"
        d="M4,33.46s5,4.12,14.86,3.3S29.19,31,35,31.39c3.14.23,5.85.11,9,.62C45,32.19,49,33,49,31v3.71c0,.22-1.17.62-1.38.68-2.08.6-4.75-.11-6.87-.26-1.31-.1-2.62-.25-3.92-.32-2.27-.1-4.46-.82-6.4.73s-8.25,3.71-11.14,4.13S8.15,39.23,4,37.17Z"/>
  <path fill="#d8c161"
        d="M29.33,33s.55-.22.55.23V35.6a.94.94,0,0,1-.31.52,10,10,0,0,0,.92-.61,4.7,4.7,0,0,1,2.28-.92,31.59,31.59,0,0,1,4.09.26s4,.31,5,.44a37,37,0,0,0,4,.34c.16-.07.34-.12.39-.43s0-2.44,0-2.44a.54.54,0,0,0-.42-.48c-.38-.05-3-.43-4.31-.55s-7.23-.39-7.9-.35a8.85,8.85,0,0,0-3.2,1A4.93,4.93,0,0,1,29.33,33Z"/>
  <path fill="#d8c161" d="M4,37.17V33.38l1.73,1a1.31,1.31,0,0,1,.31.75v2.54s0,.35-.71.18A5.71,5.71,0,0,1,4,37.17Z"/>
  <path fill="#f4df87"
        d="M44.44,29.38a81,81,0,0,0-9.88-1.29,19.22,19.22,0,0,0-5.24,1.13c-.69.31-11.95,1.16-11.95,1.16s-8.3.2-10.46,1c-.82.21-3,.7-2.9,2.08,0,.22.44.36.62.49a5.66,5.66,0,0,0,.92.47,34.14,34.14,0,0,0,5.09,2.07A24.88,24.88,0,0,0,23,36.34,16.08,16.08,0,0,0,28,34.28c.93-.59,1.7-1.44,2.68-2A32.34,32.34,0,0,0,27.79,34a16.44,16.44,0,0,1-4.72,2,26.31,26.31,0,0,1-12.13.14,34.48,34.48,0,0,1-5-1.88,5.79,5.79,0,0,1-1-.51,1.35,1.35,0,0,1-.45-.44c-.63-1.1,2.08-1.61,2.74-1.81,1.22-.38,10.27-.92,10.27-.92s11.05-.78,11.73-1.06a19.73,19.73,0,0,1,5.14-1,85,85,0,0,1,9.7,1.18c1.23.32,4.47,1.08,4.47,1.45,0,.64-.62.93-1.23,1.09-.25.06-.54.05-.8.09a4.28,4.28,0,0,0,1.33-.08C48.5,32.05,49,31.69,49,31,49,30.57,45.7,29.74,44.44,29.38Z"/>
  <path fill="#d66363"
        d="M27,31c-4.35.31-10.36,1.25-13.07-.13S8.05,28,7.38,28.22l-1,2.49a2.64,2.64,0,0,0,2.05,2.54c2,.44,8.8,1.86,12.4,1.6,1.74-.13,4.19-.31,6.33-.45a35.12,35.12,0,0,1,4.68-2.62A11,11,0,0,0,27,31ZM7.94,31a1.8,1.8,0,0,1-.07-.38l.45.33Z"/>
  <path fill="#a03d3d"
        d="M19.83,33.6c-2.67,0-9.69-1.77-10.76-2.18A2.77,2.77,0,0,1,8.32,31h0L7.94,31a1.8,1.8,0,0,1-.07-.38,1.65,1.65,0,0,0-1.4-.22l-.11.27a2.64,2.64,0,0,0,2.05,2.54c2,.44,8.8,1.86,12.4,1.6,1.74-.13,4.19-.31,6.33-.45.35-.19.67-.39,1-.58C26.14,33.74,21.85,33.57,19.83,33.6Z"/>
  <path fill="#9b893d" d="M7.88,30.74a.19.19,0,0,1,0-.08A.19.19,0,0,0,7.88,30.74Z"/>
  <path fill="#9b893d" d="M7.87,30.66l.1.07Z"/>
  <path fill="#9b893d"
        d="M19.83,33.6c-2.67,0-9.69-1.77-10.76-2.18A2.93,2.93,0,0,1,8.32,31h0L7.94,31a.29.29,0,0,1,0-.09c.15.61.65,1.31,2.09,1.54,2.33.38,7.9,1.55,11.18,1.11Z"/>
  <path fill="#9b893d" d="M7.91,30.94l0-.18Z"/>
  <path fill="#9b893d" d="M8.08,30.82,8,30.75Z"/>
  <path fill="#d66363"
        d="M6.45,30.4a.42.42,0,0,0-.18.4,4,4,0,0,0,.63,1.56,2.71,2.71,0,0,0,1.39.86c.61.16,5.5,1.14,6.78,1.32a45,45,0,0,0,4.85.44c.8,0,5.38-.46,5.8-.45a13.38,13.38,0,0,0,1.42-.13l.11-.06a6.91,6.91,0,0,1-.75.06c-.31,0-2.8.18-3.25.23s-2.44.23-3.6.25-5.86-.65-6.22-.74-4.71-.89-5.07-1a2.24,2.24,0,0,1-1.64-1.28c-.36-1-.45-1.21-.18-1.38l.18-.14Z"/>
  <path fill="#a03d3d"
        d="M6.85,30.18a1.72,1.72,0,0,1,1.2.4l.27.27a1,1,0,0,0-.22-.36c-.18-.18-.63-.53-.94-.49S6.85,30.18,6.85,30.18Z"/>
  <path fill="#8e3939"
        d="M7.91,30.9s.1-.19-.3,0-.87.82-.87.82a.29.29,0,0,0,0,.24s-.28-.84-.29-1-.13-.4.19-.56,1,.12,1,.12l.29.16Z"/>
</svg>
