<?xml version="1.0" encoding="utf-8"?>
<svg xmlns="http://www.w3.org/2000/svg"
	 viewBox="0 0 50 50">
<g>
	<ellipse fill="#A1AFB5" cx="21.68" cy="40.76" rx="18.68" ry="4.34"/>
	<g>
		<circle fill="#E4EBEF" cx="26.68" cy="24.47" r="18.47"/>
	</g>
	<g>
		<path fill="#C6DDE5" d="M28.63,37.72c-9.12,0-16.51-7.39-16.51-16.51c0-5.75,2.94-10.81,7.4-13.77c-6.65,2.8-11.31,9.37-11.31,17.03
			c0,10.2,8.27,18.47,18.47,18.47s18.47-8.27,18.47-18.47c0-0.56-0.03-1.11-0.08-1.66C44.26,31.17,37.21,37.72,28.63,37.72z"/>
	</g>
	<path fill="#FFF" d="M30.91,9.09c-0.28,0.19-0.36,0.45-0.05,0.8c0.15,0.17,0.37,0.25,0.58,0.32c1.58,0.55,3.77,1.01,4.98,2.25
		c1.53,1.27,2.51,2.98,3.87,4.39c0.12,0.12,0.75,0.39,0.75-0.02c0,0-0.01-1.74-2.42-4.14C37.04,11.13,33.39,7.43,30.91,9.09z"/>
	<path fill="#FFF" d="M41.49,18.14c-0.23,0.11-0.35,0.42-0.27,0.66c0.08,0.22,0.24,0.33,0.41,0.47c0.21,0.18,0.31,0.4,0.33,0.67
		c0.01,0.17-0.05,0.52,0.19,0.57c0.18,0.03,0.45-0.11,0.54-0.26c0.17-0.29-0.03-0.7-0.1-0.99c-0.08-0.32-0.2-0.63-0.42-0.89
		C41.99,18.2,41.74,18.02,41.49,18.14z"/>
	<path fill="#FFF" d="M26.03,41.63c2.57,0,4.99-0.64,7.11-1.77c-1.86,0.73-3.88,1.13-6,1.13c-8.23,0-15.06-6.03-16.3-13.91
		C11.18,35.17,17.85,41.63,26.03,41.63z"/>
</g>
</svg>
