<svg xmlns="http://www.w3.org/2000/svg" viewBox="0 0 1920 1080"><defs><style>.cls-1{fill:#f7f7f7;}.cls-2{fill:#8cd19e;}.cls-3{fill:#ddcd8c;}.cls-4{fill:#c14d5c;}.cls-5{fill:#f7a9a9;}</style></defs><title>Zeichenfläche 1</title><g id="Ebene_2" data-name="Ebene 2"><path class="cls-1" d="M1292,637l-27,43-27-43H595.81c11,204.32,180.13,366.61,387.19,366.61S1359.21,841.32,1370.19,637Z"/><path d="M983,1006.62c-207.66,0-379-162.29-390.18-369.46l-.17-3.16h647L1265,674.36,1290.34,634h83l-.17,3.16C1362.05,844.33,1190.66,1006.62,983,1006.62ZM599,640c12.53,202.47,180.6,360.62,384,360.62S1354.48,842.47,1367,640h-73.35L1265,685.64,1236.34,640Z"/><path class="cls-2" d="M983,234c203.29,0,371.16,151.65,396.65,348h171C1534.56,282.44,1286.57,44.5,983,44.5S431.44,282.44,415.34,582h171C611.84,385.65,779.71,234,983,234Z"/><path d="M1553.83,585H1377l-.34-2.61C1351.11,385.48,1181.87,237,983,237S614.89,385.48,589.33,582.39L589,585H412.17l.17-3.16c7.85-146,70.7-282.07,177-383.1a571.5,571.5,0,0,1,787.4,0c106.26,101,169.11,237.08,177,383.1Zm-171.56-6h165.22C1529.8,280.71,1282.46,47.5,983,47.5S436.2,280.71,418.51,579H583.73a403,403,0,0,1,798.54,0Z"/><path class="cls-3" d="M983,175c235.92,0,430.26,178,456.08,407h111.58C1534.56,282.44,1286.57,44.5,983,44.5S431.44,282.44,415.34,582H526.92C552.74,353,747.08,175,983,175Z"/><path d="M1553.83,585H1436.4l-.3-2.66C1410.11,351.83,1215.32,178,983,178S555.89,351.83,529.9,582.34l-.3,2.66H412.17l.17-3.16c7.85-146,70.7-282.07,177-383.1a571.5,571.5,0,0,1,787.4,0c106.26,101,169.11,237.08,177,383.1Zm-112.07-6h105.73C1529.8,280.71,1282.46,47.5,983,47.5S436.2,280.71,418.51,579H524.24a462.05,462.05,0,0,1,917.52,0Z"/><path class="cls-4" d="M983,116c268.53,0,489.33,204.33,515.42,466h52.24C1534.56,282.44,1286.57,44.5,983,44.5S431.44,282.44,415.34,582h52.24C493.67,320.33,714.47,116,983,116Z"/><path d="M1553.83,585H1495.7l-.27-2.7C1469.1,318.17,1248.81,119,983,119S496.9,318.17,470.57,582.3l-.27,2.7H412.17l.17-3.16c7.85-146,70.7-282.07,177-383.1a571.5,571.5,0,0,1,787.4,0c106.26,101,169.11,237.08,177,383.1Zm-52.7-6h46.36C1529.8,280.71,1282.46,47.5,983,47.5S436.2,280.71,418.51,579h46.36a521,521,0,0,1,1036.26,0Z"/><path class="cls-5" d="M1292,637l-27,43-27-43H595.81a387.21,387.21,0,0,0,12.49,79h749.4a387.21,387.21,0,0,0,12.49-79Z"/><path d="M1360,719H606l-.6-2.23a390.92,390.92,0,0,1-12.58-79.61l-.17-3.16h647L1265,674.36,1290.34,634h83l-.17,3.16a390.92,390.92,0,0,1-12.58,79.61Zm-749.38-6h744.76A385,385,0,0,0,1367,640h-73.35L1265,685.64,1236.34,640H599A385,385,0,0,0,610.62,713Z"/><path d="M904.76,311a2.72,2.72,0,0,1,1.93.79,2.59,2.59,0,0,1,.85,2v32.58a2.89,2.89,0,0,1-2.89,2.78,2.73,2.73,0,0,1-2-.79,2.67,2.67,0,0,1-.79-2V313.75a2.67,2.67,0,0,1,.81-2A2.94,2.94,0,0,1,904.76,311Zm-.22,16.24h24.85l-.06,5.23H904.49ZM929.33,311a2.74,2.74,0,0,1,2.08.79,2.79,2.79,0,0,1,.76,2v32.58a2.71,2.71,0,0,1-.79,2,2.84,2.84,0,0,1-2.1.79,2.7,2.7,0,0,1-2-.79,2.62,2.62,0,0,1-.82-2V313.75a2.59,2.59,0,0,1,.85-2A2.78,2.78,0,0,1,929.33,311Z"/><path d="M963.66,320a2.66,2.66,0,0,1,1.94.79,2.71,2.71,0,0,1,.79,2v23.54a2.67,2.67,0,0,1-.79,2,2.62,2.62,0,0,1-1.94.79,2.59,2.59,0,0,1-2-.79,2.73,2.73,0,0,1-.76-2v-3.92l1.09.16a4,4,0,0,1-.79,2.18,10.72,10.72,0,0,1-2.15,2.32,12.12,12.12,0,0,1-3.22,1.85,10.67,10.67,0,0,1-4,.74,12.17,12.17,0,0,1-6.75-1.94,13.57,13.57,0,0,1-4.74-5.31,17.92,17.92,0,0,1,0-15.45,13.58,13.58,0,0,1,4.71-5.26,12.57,12.57,0,0,1,10.95-1.14,12.48,12.48,0,0,1,3.46,2,10.12,10.12,0,0,1,2.29,2.54,4.83,4.83,0,0,1,.82,2.53l-1.69.16v-5a2.77,2.77,0,0,1,.76-2A2.58,2.58,0,0,1,963.66,320Zm-11.11,24.63a7.84,7.84,0,0,0,4.49-1.3,8.84,8.84,0,0,0,3-3.57,12.27,12.27,0,0,0,0-10.11,8.89,8.89,0,0,0-3-3.54,8.32,8.32,0,0,0-9,0,8.7,8.7,0,0,0-3.05,3.54,12.27,12.27,0,0,0,0,10.11,8.75,8.75,0,0,0,3,3.57A7.85,7.85,0,0,0,952.55,344.64Z"/><path d="M988.4,320a12.3,12.3,0,0,1,6.79,1.91,13.55,13.55,0,0,1,4.71,5.2,16.18,16.18,0,0,1,1.74,7.66,16.53,16.53,0,0,1-1.74,7.71,13.54,13.54,0,0,1-4.69,5.26,11.93,11.93,0,0,1-6.64,1.9,11.66,11.66,0,0,1-3.93-.65,12.38,12.38,0,0,1-3.27-1.72,11.3,11.3,0,0,1-2.31-2.26,5.76,5.76,0,0,1-1.12-2.23l1.47-.71v15.2a2.69,2.69,0,0,1-.79,2,2.62,2.62,0,0,1-1.93.79,2.58,2.58,0,0,1-2-.79,2.75,2.75,0,0,1-.77-2V323.12a2.77,2.77,0,0,1,.77-2,2.53,2.53,0,0,1,2-.82,2.57,2.57,0,0,1,1.93.82,2.7,2.7,0,0,1,.79,2v3.76l-.87-.49a4.68,4.68,0,0,1,1-2.15,10.8,10.8,0,0,1,2.2-2.1,11.73,11.73,0,0,1,3.05-1.58A10.79,10.79,0,0,1,988.4,320Zm-.6,5a8.09,8.09,0,0,0-4.55,1.28,8.83,8.83,0,0,0-3,3.46,11.07,11.07,0,0,0-1.09,5,11.43,11.43,0,0,0,1.09,5,8.6,8.6,0,0,0,3,3.54,8.09,8.09,0,0,0,4.55,1.28,7.85,7.85,0,0,0,4.47-1.28,8.93,8.93,0,0,0,3-3.54,11.3,11.3,0,0,0,1.11-5,11,11,0,0,0-1.11-5,9.13,9.13,0,0,0-3-3.49A7.85,7.85,0,0,0,987.8,325Z"/><path d="M1022,320a12.29,12.29,0,0,1,6.78,1.91,13.65,13.65,0,0,1,4.72,5.2,16.18,16.18,0,0,1,1.74,7.66,16.53,16.53,0,0,1-1.74,7.71,13.7,13.7,0,0,1-4.69,5.26,12,12,0,0,1-6.65,1.9,11.56,11.56,0,0,1-3.92-.65,12.08,12.08,0,0,1-3.27-1.72,11.36,11.36,0,0,1-2.32-2.26,5.72,5.72,0,0,1-1.11-2.23L1013,342v15.2a2.73,2.73,0,0,1-.79,2,2.62,2.62,0,0,1-1.94.79,2.59,2.59,0,0,1-2-.79,2.75,2.75,0,0,1-.76-2V323.12a2.76,2.76,0,0,1,.76-2,2.54,2.54,0,0,1,2-.82,2.58,2.58,0,0,1,1.94.82,2.74,2.74,0,0,1,.79,2v3.76l-.87-.49a4.76,4.76,0,0,1,1-2.15,10.87,10.87,0,0,1,2.21-2.1,11.73,11.73,0,0,1,3-1.58A10.7,10.7,0,0,1,1022,320Zm-.6,5a8.09,8.09,0,0,0-4.55,1.28,8.75,8.75,0,0,0-3,3.46,11.07,11.07,0,0,0-1.09,5,11.43,11.43,0,0,0,1.09,5,8.53,8.53,0,0,0,3,3.54,8.09,8.09,0,0,0,4.55,1.28,7.85,7.85,0,0,0,4.47-1.28,8.83,8.83,0,0,0,3-3.54,11.17,11.17,0,0,0,1.12-5,10.84,10.84,0,0,0-1.12-5,9,9,0,0,0-3-3.49A7.85,7.85,0,0,0,1021.37,325Z"/><path d="M1062.4,320.23a2.63,2.63,0,0,1,2,.79,2.75,2.75,0,0,1,.77,2v23.43a14.81,14.81,0,0,1-1.83,7.8,10.91,10.91,0,0,1-4.9,4.38,16.69,16.69,0,0,1-7,1.39,22.49,22.49,0,0,1-3.92-.35,11.76,11.76,0,0,1-3.22-1,4.12,4.12,0,0,1-1.85-1.47,2.07,2.07,0,0,1-.17-1.91,2.7,2.7,0,0,1,1.31-1.77,2.24,2.24,0,0,1,1.91-.08l2.45,1a9.49,9.49,0,0,0,3.49.6,10.56,10.56,0,0,0,4.52-.87,6,6,0,0,0,2.81-2.73,10.52,10.52,0,0,0,1-4.79v-3.76l.87,1.3a8.94,8.94,0,0,1-2.29,3A10,10,0,0,1,1055,349a13.14,13.14,0,0,1-4.27.66,9.56,9.56,0,0,1-5.15-1.34,8.66,8.66,0,0,1-3.3-3.7,12.37,12.37,0,0,1-1.14-5.42V323a2.75,2.75,0,0,1,.76-2,2.79,2.79,0,0,1,3.89,0,2.69,2.69,0,0,1,.79,2v14.71c0,2.4.53,4.16,1.59,5.26a6.14,6.14,0,0,0,4.68,1.66,7.16,7.16,0,0,0,3.6-.87,6.41,6.41,0,0,0,2.4-2.42,7.3,7.3,0,0,0,.87-3.63V323a2.69,2.69,0,0,1,.79-2A2.64,2.64,0,0,1,1062.4,320.23Z"/><path class="cls-1" d="M826,969v32a15,15,0,0,0,15,15h284a15,15,0,0,0,15-15V969Z"/><path d="M1125,1019H841a18,18,0,0,1-18-18V966h320v35A18,18,0,0,1,1125,1019ZM829,972v29a12,12,0,0,0,12,12h284a12,12,0,0,0,12-12V972Z"/><path d="M855.17,488.24h69.08v19h-20v64.26H875V507.26H855.17Z"/><path d="M942.21,488.24h58.57V506H971.16V521.3h25.7v17.28h-25.7v15.16H1001v17.78H942.21Z"/><path d="M1113,571.52H1083l-4.87-13.91H1047.5l-5.06,13.91h-29.53l33.83-83.28h32.48Zm-40.51-28.89a253,253,0,0,1-9.74-35.37h-.38a274.57,274.57,0,0,1-9.65,35.37Z"/><path d="M837,384.36q8.13,0,12.32,4t4.2,11.57a14,14,0,0,1-1.9,7.2,13.12,13.12,0,0,1-5.56,5.07,20.93,20.93,0,0,1-9.15,1.95l.18-3.27a27.91,27.91,0,0,1,6.32.79,20.32,20.32,0,0,1,6.4,2.74,15.43,15.43,0,0,1,4.94,5.26,16,16,0,0,1,2,8.25,20.19,20.19,0,0,1-1.77,9,14.5,14.5,0,0,1-4.68,5.6,18.5,18.5,0,0,1-6.4,2.87,29.23,29.23,0,0,1-6.85.84h-22.6a4.38,4.38,0,0,1-3.18-1.28,4.27,4.27,0,0,1-1.33-3.22V388.86a4.27,4.27,0,0,1,1.33-3.22,4.38,4.38,0,0,1,3.18-1.28ZM835.79,393h-17.4l1.06-1.41v19l-1-1H836a8.8,8.8,0,0,0,5.61-2.16,7.62,7.62,0,0,0,2.43-6.14c0-2.77-.74-4.84-2.21-6.23A8.41,8.41,0,0,0,835.79,393Zm.62,25.26H818.83l.62-.62v20.84l-.71-.79h18.19a11,11,0,0,0,7.42-2.43q2.83-2.43,2.83-7.38,0-4.14-1.68-6.18a8.29,8.29,0,0,0-4.15-2.74A18,18,0,0,0,836.41,418.27Z"/><path d="M870.49,393.54a5.91,5.91,0,0,1-3.71-.93,3.82,3.82,0,0,1-1.15-3.13v-1.42a3.56,3.56,0,0,1,1.24-3.09,6.45,6.45,0,0,1,3.71-.88,6.09,6.09,0,0,1,3.8.93,3.7,3.7,0,0,1,1.15,3v1.42a3.71,3.71,0,0,1-1.2,3.18A6.51,6.51,0,0,1,870.49,393.54ZM875,441.67a4.47,4.47,0,0,1-1.24,3.22,4.53,4.53,0,0,1-6.31,0,4.35,4.35,0,0,1-1.29-3.22v-37.8a4.35,4.35,0,0,1,1.29-3.22,4.53,4.53,0,0,1,6.31,0,4.47,4.47,0,0,1,1.24,3.22Z"/><path d="M891.33,446.17a4.22,4.22,0,0,1-3.18-1.28,4.46,4.46,0,0,1-1.23-3.22V404.23a4.48,4.48,0,0,1,1.23-3.23,4.54,4.54,0,0,1,6.32,0,4.4,4.4,0,0,1,1.28,3.23v9.89l-.88-3.8a15.57,15.57,0,0,1,2.16-4.59,16.39,16.39,0,0,1,3.49-3.71,15.79,15.79,0,0,1,9.8-3.36,6.47,6.47,0,0,1,4,1.24A3.7,3.7,0,0,1,916,403a4.44,4.44,0,0,1-1.24,3.49,4,4,0,0,1-2.73,1.1,6,6,0,0,1-2.56-.57,6.94,6.94,0,0,0-2.92-.58,8.6,8.6,0,0,0-3.8,1,11.26,11.26,0,0,0-3.53,2.87,14.58,14.58,0,0,0-2.51,4.46,16.78,16.78,0,0,0-.93,5.74v21.2a4.38,4.38,0,0,1-1.28,3.22A4.25,4.25,0,0,1,891.33,446.17Z"/><path d="M923.21,400.25H944a4.08,4.08,0,0,1,4.16,4.15,3.77,3.77,0,0,1-1.2,2.83,4.11,4.11,0,0,1-3,1.15H923.21a4,4,0,0,1-3-1.2,4.1,4.1,0,0,1,0-5.78A4.09,4.09,0,0,1,923.21,400.25Zm9.27-11.48a4.23,4.23,0,0,1,3.18,1.28,4.45,4.45,0,0,1,1.24,3.23v41a5.36,5.36,0,0,0,.53,2.56,2.77,2.77,0,0,0,1.46,1.33,5.37,5.37,0,0,0,1.9.35,4.1,4.1,0,0,0,1.72-.35,4.14,4.14,0,0,1,1.81-.36,2.63,2.63,0,0,1,1.94,1,3.8,3.8,0,0,1,.88,2.65,3.92,3.92,0,0,1-2.29,3.45,9.76,9.76,0,0,1-5,1.32,28.89,28.89,0,0,1-3.53-.26,11,11,0,0,1-3.93-1.33,7.94,7.94,0,0,1-3.13-3.4,14.21,14.21,0,0,1-1.24-6.58V393.28a4.4,4.4,0,0,1,1.28-3.23A4.27,4.27,0,0,1,932.48,388.77Z"/><path d="M981.32,398.93q6.09,0,9.45,2.6a13.84,13.84,0,0,1,4.72,7,32.48,32.48,0,0,1,1.37,9.72v23.4a4.38,4.38,0,0,1-1.28,3.22,4.23,4.23,0,0,1-3.13,1.28,4.19,4.19,0,0,1-3.18-1.28,4.43,4.43,0,0,1-1.24-3.22v-23.4a18,18,0,0,0-.84-5.65,7.93,7.93,0,0,0-2.91-4.07,9.75,9.75,0,0,0-5.79-1.5,12.37,12.37,0,0,0-6.13,1.5,10.55,10.55,0,0,0-4.15,4.07,11.12,11.12,0,0,0-1.46,5.65v23.4a4.38,4.38,0,0,1-1.28,3.22,4.54,4.54,0,0,1-6.32,0,4.46,4.46,0,0,1-1.23-3.22V385.33a4.48,4.48,0,0,1,1.23-3.23,4.54,4.54,0,0,1,6.32,0,4.4,4.4,0,0,1,1.28,3.23v24.11l-1.59.88a14.35,14.35,0,0,1,2.07-4,18.07,18.07,0,0,1,3.62-3.7,18.93,18.93,0,0,1,4.82-2.7A15.78,15.78,0,0,1,981.32,398.93Z"/><path d="M1046.84,380.82a4.31,4.31,0,0,1,4.42,4.51v56.34a4.38,4.38,0,0,1-1.28,3.22,4.24,4.24,0,0,1-3.14,1.28,4.18,4.18,0,0,1-3.17-1.28,4.43,4.43,0,0,1-1.24-3.22v-6.36l1.77.09a6.79,6.79,0,0,1-1.29,3.58,17.5,17.5,0,0,1-3.48,3.84,19,19,0,0,1-5.21,3,17.24,17.24,0,0,1-6.45,1.2,19.83,19.83,0,0,1-10.91-3.14,22,22,0,0,1-7.72-8.57,29,29,0,0,1,0-25,22.25,22.25,0,0,1,7.63-8.56,20,20,0,0,1,17.67-1.9,20,20,0,0,1,5.6,3.18,17.41,17.41,0,0,1,3.76,4.1,7.81,7.81,0,0,1,1.37,4.11l-2.74.27V385.33a4.45,4.45,0,0,1,1.24-3.23A4.22,4.22,0,0,1,1046.84,380.82Zm-18,58.11a12.69,12.69,0,0,0,7.28-2.12,14.36,14.36,0,0,0,4.91-5.74,20,20,0,0,0,0-16.42,14.36,14.36,0,0,0-4.91-5.74,13.49,13.49,0,0,0-14.52,0,14.22,14.22,0,0,0-5,5.74,20,20,0,0,0,0,16.42,14.22,14.22,0,0,0,5,5.74A12.77,12.77,0,0,0,1028.83,438.93Z"/><path d="M1101.24,399a4.25,4.25,0,0,1,3.14,1.28,4.36,4.36,0,0,1,1.28,3.22v38.15a4.38,4.38,0,0,1-1.28,3.22,4.54,4.54,0,0,1-6.32,0,4.46,4.46,0,0,1-1.23-3.22v-6.36l1.76.27a6.54,6.54,0,0,1-1.28,3.53,16.79,16.79,0,0,1-3.49,3.75,19.12,19.12,0,0,1-5.21,3,17.19,17.19,0,0,1-6.44,1.2,19.74,19.74,0,0,1-11-3.14,22.09,22.09,0,0,1-7.69-8.61,29.2,29.2,0,0,1,0-25,21.94,21.94,0,0,1,7.64-8.52,20.3,20.3,0,0,1,17.75-1.85,20.09,20.09,0,0,1,5.61,3.18,16.33,16.33,0,0,1,3.71,4.1,8,8,0,0,1,1.32,4.11l-2.73.27v-8a4.5,4.5,0,0,1,1.23-3.18A4.18,4.18,0,0,1,1101.24,399Zm-18,39.91a12.72,12.72,0,0,0,7.28-2.12,14.24,14.24,0,0,0,4.9-5.78,19.83,19.83,0,0,0,0-16.38,14.26,14.26,0,0,0-4.9-5.74,13.49,13.49,0,0,0-14.52,0,14.22,14.22,0,0,0-5,5.74,19.83,19.83,0,0,0,0,16.38,14.32,14.32,0,0,0,4.9,5.78A12.73,12.73,0,0,0,1083.23,438.93Z"/><path d="M1151.4,399.37a4.23,4.23,0,0,1,3.18,1.28,4.43,4.43,0,0,1,1.24,3.22v38q0,7.77-3,12.62a17.62,17.62,0,0,1-7.95,7.11,27.08,27.08,0,0,1-11.26,2.25,36,36,0,0,1-6.36-.57,18.62,18.62,0,0,1-5.21-1.63,6.73,6.73,0,0,1-3-2.39,3.33,3.33,0,0,1-.26-3.09,4.32,4.32,0,0,1,2.12-2.87,3.67,3.67,0,0,1,3.09-.13c1,.41,2.32.94,4,1.59a15.31,15.31,0,0,0,5.65,1,17.14,17.14,0,0,0,7.33-1.41,9.65,9.65,0,0,0,4.55-4.42,17,17,0,0,0,1.55-7.77V436l1.41,2.12a14.55,14.55,0,0,1-3.71,4.85,16.45,16.45,0,0,1-5.43,3,21.72,21.72,0,0,1-6.93,1.06,15.57,15.57,0,0,1-8.35-2.17,14.09,14.09,0,0,1-5.34-6,19.92,19.92,0,0,1-1.86-8.79V403.87a4.47,4.47,0,0,1,1.24-3.22,4.53,4.53,0,0,1,6.31,0,4.35,4.35,0,0,1,1.29,3.22v23.85q0,5.82,2.56,8.52t7.59,2.69a11.57,11.57,0,0,0,5.83-1.41,10.2,10.2,0,0,0,3.89-3.93,11.83,11.83,0,0,0,1.41-5.87V403.87a4.34,4.34,0,0,1,1.28-3.22A4.27,4.27,0,0,1,1151.4,399.37Z"/><path class="cls-1" d="M775,517h-6v-6a43.5,43.5,0,0,0-87,0v6h-6a33.1,33.1,0,0,0-33,33h0a33.1,33.1,0,0,0,33,33h99a33.1,33.1,0,0,0,33-33h0A33.1,33.1,0,0,0,775,517Z"/><path d="M775,586H676a36,36,0,0,1,0-72h3v-3a46.5,46.5,0,0,1,93,0v3h3a36,36,0,0,1,0,72Zm-99-66a30,30,0,0,0,0,60h99a30,30,0,0,0,0-60h-9v-9a40.5,40.5,0,0,0-81,0v9Z"/><path class="cls-1" d="M1288,517h-6v-6a43.5,43.5,0,0,0-87,0v6h-6a33.1,33.1,0,0,0-33,33h0a33.1,33.1,0,0,0,33,33h99a33.1,33.1,0,0,0,33-33h0A33.1,33.1,0,0,0,1288,517Z"/><path d="M1288,586h-99a36,36,0,0,1,0-72h3v-3a46.5,46.5,0,0,1,93,0v3h3a36,36,0,0,1,0,72Zm-99-66a30,30,0,0,0,0,60h99a30,30,0,0,0,0-60h-9v-9a40.5,40.5,0,0,0-81,0v9Z"/><path class="cls-1" d="M1361.61,680.22s18-9.49,25.75,10.21-8.48,33.46-17.91,33.49-35.17-9.33-38.67-32.46,24.71-48.09,61.57-50.77c38.41-2.8,79.08-.3,109.64,26,33.77,29,39.27,81,26.7,121.78-38,123.29-206,173.19-320.5,186.27,0,0,6.91,17.13-7.64,26.6s-40.27,7-46.32-10.14,5-36.88,16.16-41.2c0,0,15.41-7.77,45.39-13.86,80-16.25,178.45-36,237.76-97.72,31.87-33.17,69.45-120,11-149-22.32-11.08-44.63-17.87-70.31-4.93l-6.84,6"/><path d="M1180.8,1009.76a39.46,39.46,0,0,1-12.59-2c-8.28-2.81-14.24-8.35-16.81-15.61-6.35-18,4.45-39.66,17.77-44.95,1.67-.82,17.09-8.17,46-14.05l1.28-.26c78.66-16,176.56-35.87,234.91-96.6,19.93-20.75,46.35-69.09,39.76-107-3-17-12.38-29.57-28-37.31-23.31-11.56-43.68-16.85-67.29-5.11l-5,4.42c2.8,8.62,1.72,17.17-3.1,24.29-4.5,6.63-12,11.28-18.31,11.3h0c-10.73,0-37.82-10-41.6-35-1.39-9.22,1.61-18.78,8.69-27.64,11.78-14.74,33.09-24.92,55.63-26.56,34.67-2.53,78.7-1.78,111.81,26.67,36.12,31,39.9,85.12,27.61,125-17.29,56.08-62.08,101.93-133.12,136.28-69.54,33.62-145.21,46.73-186.32,51.66,1.72,7.54,1.17,19.33-9.92,26.56A39.88,39.88,0,0,1,1180.8,1009.76Zm241.87-335.4c15.47,0,29.74,5.62,43.17,12.29,17.4,8.63,27.9,22.64,31.21,41.65,3.88,22.3-3.14,45.94-9.7,61.85-7.88,19.07-19.71,37.88-31.65,50.31-59.64,62.08-158.56,82.18-238,98.32l-1.28.26c-29.15,5.92-44.49,13.52-44.64,13.6l-.26.11c-9.6,3.73-19.88,22-14.43,37.41,2.49,7,8.49,10.37,13.08,11.93,9.34,3.16,20.9,1.83,28.78-3.3,12.34-8,6.74-22.36,6.5-23l-1.48-3.66,3.92-.45c39.8-4.54,117.15-17.28,188-51.53,69.48-33.59,113.21-78.22,130-132.64,11.71-38,8.27-89.36-25.79-118.63-31.44-27-74-27.68-107.47-25.24-20.92,1.53-40.61,10.84-51.37,24.32-6,7.53-8.59,15.48-7.45,23,3.19,21,26.76,29.91,35.66,29.91h0c3.64,0,9.56-3,13.36-8.67,2.87-4.23,5.5-11.25,1.77-20.72-2-5.1-4.93-8.4-8.66-9.8-6.16-2.3-12.85,1.11-12.91,1.15l-2.79-5.32c.36-.19,9-4.69,17.74-1.47a19.81,19.81,0,0,1,10.42,9.45l4.13-3.64.35-.17A65.14,65.14,0,0,1,1422.67,674.36Z"/><path class="cls-1" d="M1191.88,968.75s11.13-3.46,16.31,6"/><path d="M1205.56,976.15c-3.91-7.11-12.44-4.64-12.8-4.53l-1.77-5.73c4.66-1.45,14.8-1.78,19.83,7.37Z"/></g></svg>