<svg id="Ebene_1" data-name="Ebene 1" xmlns="http://www.w3.org/2000/svg" viewBox="0 0 113.74 58.74"><defs><style>.cls-1{fill:#1a1a1a;}</style></defs><title>Zeichenfläche 1</title><path class="cls-1" d="M97.86,17.92c-2.81-2.41-6.54-2.64-10.06-2.38a7.76,7.76,0,0,0-2.09.43c0-.26,0-.51.05-.77H78.59l-2.48,3.94L73.63,15.2H14.71A35.63,35.63,0,0,0,35.83,45.8v2.79A1.38,1.38,0,0,0,37.21,50H63.27a1.38,1.38,0,0,0,1.37-1.38V45.8c.55-.25,1.1-.51,1.63-.78A3.25,3.25,0,0,0,66,47.69c.55,1.57,2.91,1.8,4.25.93a2.05,2.05,0,0,0,.7-2.44C81.41,45,96.82,40.4,100.3,29.09,101.46,25.35,101,20.58,97.86,17.92ZM93.41,33.67c-5.44,5.67-14.47,7.48-21.81,9-.8.16-1.48.34-2,.5a35.68,35.68,0,0,0,15-20.25,3.48,3.48,0,0,0,1.2.28,2.19,2.19,0,0,0,1.64-3.07l.63-.55c2.35-1.19,4.4-.57,6.45.45C99.78,22.66,96.33,30.63,93.41,33.67Z"/></svg>